<svg width="96" height="77" viewBox="0 0 96 77" fill="none" xmlns="http://www.w3.org/2000/svg">
<path fill-rule="evenodd" clip-rule="evenodd" d="M82.5374 60.9972C82.5357 61.9047 82.4019 62.5931 83.251 62.8428C84.1399 63.1042 84.3077 62.4191 84.6034 61.8562C84.7496 61.5783 84.8751 61.1865 85.3084 61.2386C85.757 61.2921 85.9044 61.628 85.9686 62.0335C86.008 62.2816 85.9744 62.6113 86.2892 62.6975C86.6549 62.7973 86.7999 62.4709 86.9846 62.2406C88.5466 60.2951 89.7838 58.1491 90.7932 55.8785C91.4174 54.4735 91.9741 53.025 92.1415 51.4763C92.373 49.3308 90.7477 48.1391 88.7657 48.9899C87.5944 49.4927 86.6525 50.3099 85.9549 51.3533C83.949 54.3538 83.01 57.7357 82.5374 60.9972M79.1384 61.8997C79.4565 56.3312 80.9062 51.1031 83.8856 46.3431C84.6746 45.0827 85.7905 44.1288 86.9904 43.2785C87.731 42.7533 88.586 43.0266 89.3986 42.9819C89.648 42.9682 90.3757 43.6807 90.2117 42.6099C90.2017 42.5433 90.6234 42.6021 90.8239 42.6936C92.1535 43.3025 93.2482 44.1454 93.9151 45.5102C95.8179 49.4049 95.6141 53.2872 93.9171 57.1691C92.4285 60.5738 90.5315 63.6874 87.6913 66.1763C86.2552 67.4347 84.4601 67.6973 82.7503 68.0672C81.3051 68.3799 79.8492 67.0134 79.4739 65.3865C79.2105 64.2445 79.1674 63.0777 79.1384 61.8997" fill="black"/>
<path fill-rule="evenodd" clip-rule="evenodd" d="M10.0696 66.9886C10.9162 64.218 10.8251 61.6996 9.53317 59.3001C8.57678 57.5236 7.29648 57.4416 5.99299 59.0094C5.04033 60.1551 4.47826 61.5095 4.03506 62.917C3.36944 65.0302 4.1266 66.4861 6.19263 67.2449C7.02352 67.5502 7.50358 67.3535 7.66263 66.5159C7.80015 65.7911 8.07145 65.1172 8.86879 65.1512C9.76015 65.1897 9.69263 66.0728 9.86494 66.7007C9.87405 66.7342 9.90678 66.762 10.0696 66.9886M13.4962 61.2527C13.5604 65.7029 12.3704 69.2812 10.0497 72.4945C9.54104 73.1999 8.96944 73.8572 8.21601 74.312C7.15814 74.9512 5.99133 74.6041 5.66784 73.4459C5.48642 72.7948 5.16831 72.6569 4.59879 72.5591C2.03488 72.1193 0.0918649 70.2525 0.0115099 67.6989C-0.155413 62.4075 1.49062 57.6276 5.10411 53.7478C7.72891 50.93 10.6068 51.6006 12.2574 55.1221C13.2365 57.2117 13.4942 59.4468 13.4962 61.2527" fill="black"/>
<path fill-rule="evenodd" clip-rule="evenodd" d="M38.9925 52.1947C38.9399 51.2942 38.7349 50.2554 37.7793 49.7985C36.902 49.3789 36.2095 50.1477 35.6503 50.7259C33.3486 53.1047 31.9175 55.9734 31.1177 59.1636C30.9098 59.9916 31.4254 60.3975 32.1503 60.6415C32.8362 60.8726 33.2856 60.7488 33.5652 60.0111C33.7441 59.5393 33.9976 58.9681 34.6595 59.0617C35.2361 59.1433 35.1189 59.7489 35.2841 60.132C35.3682 60.3263 35.3003 60.622 35.5849 60.6688C35.8371 60.7102 36.0152 60.4944 36.1109 60.3093C37.4227 57.7719 38.7121 55.2241 38.9925 52.1947M27.3982 60.82C27.5883 56.7575 29.1254 53.0893 30.7934 49.4634C31.7825 47.3141 33.0354 45.4092 35.222 44.2354C37.146 43.2024 38.9328 43.5507 39.999 45.5032C41.6761 48.5758 42.3338 51.8335 41.2975 55.283C40.3933 58.2934 39.012 61.0511 36.9227 63.4328C36.603 63.7969 36.1962 64.1701 35.7973 64.0595C34.93 63.8192 34.5991 64.4351 34.2942 64.9169C33.4687 66.2237 32.2688 66.5364 30.8895 66.2999C29.3656 66.0385 28.1433 65.3008 27.6231 63.7206C27.3112 62.7738 27.2582 61.807 27.3982 60.82" fill="black"/>
<path fill-rule="evenodd" clip-rule="evenodd" d="M12.3602 39.5113C12.6957 39.1779 12.7115 38.8295 12.7757 38.5015C12.8486 38.13 13.1153 37.92 13.4177 38.0989C14.1628 38.5409 14.5228 38.0078 14.9328 37.5886C16.0396 36.4582 17.0374 35.2119 17.7784 33.8359C18.5819 32.3448 19.4327 30.8048 19.2152 28.9749C19.0802 27.8371 18.975 26.5874 17.7138 26.2109C16.4215 25.8253 15.4448 26.6707 14.5977 27.5736C14.5468 27.6279 14.5136 27.6983 14.4656 27.7559C12.6187 29.9864 11.794 32.6907 11.1325 35.4136C10.7759 36.8828 11.1702 38.3636 12.3602 39.5113M7.47513 38.3362C7.55465 34.8304 8.71732 31.6241 10.0266 28.4198C10.93 26.2084 12.1394 24.253 13.6836 22.4661C15.0355 20.9025 17.8049 20.2779 19.7061 21.3946C20.4181 21.8129 20.5444 22.7382 21.3219 23.053C20.4181 24.0351 21.7825 24.4452 21.8636 25.1924C22.1946 28.2239 22.1002 31.1382 20.6774 33.9838C19.2848 36.7701 17.4628 39.1162 14.9834 40.9677C14.7075 41.1739 14.6354 41.4017 14.6048 41.7223C14.5621 42.1655 14.5037 42.6286 14.3351 43.0345C13.3663 45.3702 11.7455 45.7508 9.85471 44.0737C8.14241 42.5549 7.413 40.6019 7.47513 38.3362" fill="black"/>
<path fill-rule="evenodd" clip-rule="evenodd" d="M72.2313 36.1783C72.1857 35.6025 72.2781 34.9419 71.6912 34.654C71.1444 34.386 70.7066 34.8719 70.2986 35.1846C69.7275 35.6228 69.2586 36.1712 68.8779 36.7784C67.3644 39.1936 66.367 41.8044 65.9296 44.6292C65.8191 45.3458 65.8046 46.2338 66.5095 46.3689C67.2543 46.5113 68.3233 46.6853 68.7789 45.5703C68.9057 45.2596 69.0643 44.9502 69.266 44.6835C71.1685 42.1602 71.6054 39.1381 72.2313 36.1783M63.0087 45.149C63.256 41.2535 64.4041 37.3339 66.5116 33.6976C66.775 33.2441 67.0944 32.8232 67.3586 32.3701C68.4277 30.5381 70.1151 29.8136 72.1348 29.7639C72.8323 29.747 73.2212 30.2995 73.536 30.881C74.6751 32.9856 74.9654 35.2322 74.5003 37.541C73.5783 42.1154 71.8631 46.3792 69.2764 50.281C68.8141 50.9789 68.2202 51.5513 67.6117 52.0993C66.9241 52.7181 66.3389 52.4841 66.1061 51.5745C66.0266 51.2626 66.0493 50.9006 65.6144 50.7813C63.8798 50.305 63.6482 48.7344 63.2179 47.3551C63.0327 46.7603 63.0886 46.0905 63.0087 45.149" fill="black"/>
<path fill-rule="evenodd" clip-rule="evenodd" d="M55.7086 18.0276C54.7849 18.8485 54.4693 19.8414 53.9755 20.7501C53.0684 22.4218 52.658 24.1971 52.4082 26.0395C52.3668 26.346 52.3838 26.674 52.747 26.7821C53.102 26.8878 53.2867 26.5924 53.445 26.3563C53.5883 26.1418 53.599 25.7508 53.7784 25.6638C54.3844 25.3689 53.9735 23.8802 55.2695 24.4117C55.4352 24.4792 55.5893 24.1801 55.3921 24.0339C54.5314 23.3973 55.0802 22.6998 55.3151 22.0565C55.7753 20.7944 56.1058 19.5361 55.7086 18.0276M56.6041 12.971C55.3681 13.5488 55.8751 14.1482 56.5908 14.4207C58.2265 15.0445 58.3288 16.5501 58.6287 17.8561C58.8205 18.6911 58.6589 19.6682 58.4398 20.5264C57.4486 24.4108 55.6634 27.951 53.5158 31.311C53.1625 31.8644 52.5403 32.2251 52.1862 32.8175C52.0329 33.073 51.7364 33.2383 51.4034 33.1256C51.0745 33.0142 50.9784 32.7818 51.0148 32.4206C51.0824 31.7472 50.7891 31.2389 50.2937 30.7514C48.9293 29.4102 49.0569 27.608 49.2011 25.9628C49.5684 21.7616 50.985 17.8677 53.2784 14.3283C53.9768 13.2502 54.951 12.4226 56.6041 12.971" fill="black"/>
<path fill-rule="evenodd" clip-rule="evenodd" d="M59.1621 68.2277C59.2504 68.5342 59.3386 68.8411 59.467 69.2884C60.4495 68.0446 61.1109 66.7552 61.5119 65.3515C61.7774 64.4216 61.0525 63.6172 60.0808 63.6686C59.1017 63.7199 58.3772 64.2634 57.8524 65.0354C56.4682 67.0725 55.8514 69.4206 55.496 71.7939C55.3904 72.5014 55.4749 73.4586 55.9148 74.2394C56.295 74.9133 55.5259 76.6119 54.7318 76.8675C53.7378 77.1877 53.266 76.469 52.9276 75.7442C52.2603 74.3164 52.4935 72.7669 52.6302 71.2973C52.94 67.9742 53.9399 64.8329 55.6551 61.9467C56.4185 60.6619 57.2945 59.481 58.9207 59.2474C61.6912 58.8502 62.8274 59.1413 63.5473 61.9248C64.4962 65.5925 62.4844 70.681 59.3572 72.8808C59.0109 73.1248 58.6609 73.3306 58.2107 73.1563C57.6971 72.9578 57.7717 72.4861 57.7543 72.1C57.6896 70.6628 58.3333 69.4376 58.878 68.1867C58.9728 68.2003 59.0673 68.214 59.1621 68.2277" fill="black"/>
<path fill-rule="evenodd" clip-rule="evenodd" d="M39.996 0.010149C40.8828 -0.0664782 41.5315 0.281451 41.5708 1.12808C41.6396 2.62376 41.9726 4.01796 41.5368 5.6553C40.8037 8.41015 39.6775 10.8887 38.1288 13.1929C37.4449 14.2098 37.7237 15.3401 37.2921 16.3566C36.9326 17.2032 36.5093 17.9757 35.8436 18.6086C35.4125 19.0187 34.9535 19.326 34.3389 18.9727C33.7619 18.6413 33.5208 18.2768 33.4848 17.4787C33.2594 12.4851 35.1499 8.03323 36.8336 3.51843C37.2064 2.52021 37.8012 1.66074 38.4212 0.80583C38.8375 0.232576 39.3407 -0.0590226 39.996 0.010149" fill="black"/>
</svg>
